<svg width="24" height="24" viewBox="0 0 24 24" fill="none" xmlns="http://www.w3.org/2000/svg">
<path d="M4.00015 10.9965V14.9965C4.00015 18.2964 4.00015 19.9463 5.02528 20.9714C6.0504 21.9965 7.70032 21.9965 11.0002 21.9965H13.0002C16.3 21.9965 17.9499 21.9965 18.975 20.9714C20.0002 19.9463 20.0002 18.2964 20.0002 14.9965V10.9965" stroke="#0256B2" stroke-width="2.21713" stroke-linecap="round" stroke-linejoin="round"/>
<path d="M3.00018 8.99646C3.00018 8.24877 3.00018 7.87492 3.20114 7.59646C3.3328 7.41404 3.52215 7.26255 3.75018 7.15723C4.09826 6.99646 4.56557 6.99646 5.50018 6.99646H18.5002C19.4348 6.99646 19.9021 6.99646 20.2502 7.15723C20.4782 7.26255 20.6676 7.41404 20.7992 7.59646C21.0002 7.87492 21.0002 8.24877 21.0002 8.99646C21.0002 9.74415 21.0002 10.118 20.7992 10.3965C20.6676 10.5789 20.4782 10.7304 20.2502 10.8357C19.9021 10.9965 19.4348 10.9965 18.5002 10.9965H5.50018C4.56557 10.9965 4.09826 10.9965 3.75018 10.8357C3.52215 10.7304 3.3328 10.5789 3.20114 10.3965C3.00018 10.118 3.00018 9.74415 3.00018 8.99646Z" stroke="#0256B2" stroke-width="2.21713" stroke-linejoin="round"/>
<path d="M6.00003 3.78217C6.00003 2.79595 6.79952 1.99646 7.78574 1.99646H8.14289C10.2731 1.99646 12 3.72336 12 5.8536V6.99646H9.21432C7.43912 6.99646 6.00003 5.55737 6.00003 3.78217Z" stroke="#0256B2" stroke-width="2.21713" stroke-linejoin="round"/>
<path d="M18.0001 3.78217C18.0001 2.79595 17.2006 1.99646 16.2143 1.99646H15.8572C13.727 1.99646 12.0001 3.72336 12.0001 5.8536V6.99646H14.7858C16.561 6.99646 18.0001 5.55737 18.0001 3.78217Z" stroke="#0256B2" stroke-width="2.21713" stroke-linejoin="round"/>
<path d="M12.0001 10.9965L12.0001 21.9965" stroke="#0256B2" stroke-width="2.21713" stroke-linecap="round" stroke-linejoin="round"/>
</svg>
